<?xml version="1.0" standalone="no"?>
<!DOCTYPE svg PUBLIC "-//W3C//DTD SVG 20010904//EN"
 "http://www.w3.org/TR/2001/REC-SVG-20010904/DTD/svg10.dtd">
<svg version="1.0" xmlns="http://www.w3.org/2000/svg"
 width="96.000000pt" height="137.000000pt" viewBox="0 0 96.000000 137.000000"
 preserveAspectRatio="xMidYMid meet">
<metadata>
Created by potrace 1.15, written by Peter Selinger 2001-2017
</metadata>
<g transform="translate(0.000000,137.000000) scale(0.100000,-0.100000)"
fill="#000000" stroke="none">
<path d="M874 945 c-28 -28 -34 -31 -29 -15 6 19 4 21 -17 15 -12 -4 -44 -29
-71 -56 -40 -41 -47 -52 -41 -75 5 -19 4 -25 -5 -20 -7 5 -11 -1 -11 -16 0
-172 -17 -266 -49 -276 -8 -3 -11 0 -7 6 3 6 -3 13 -14 17 -11 3 -20 14 -20
23 0 39 -48 119 -85 142 -67 41 -159 34 -217 -18 -16 -14 -18 -14 -18 1 0 9
-6 20 -13 24 -8 4 -18 16 -23 25 -6 12 -14 14 -24 8 -12 -7 -12 -11 1 -26 13
-16 12 -17 -4 -11 -10 4 -24 7 -30 7 -7 0 -19 5 -27 10 -13 9 -13 11 0 20 26
17 -20 6 -59 -14 -18 -10 -43 -15 -55 -12 -32 8 -44 -5 -44 -46 0 -21 3 -36 7
-34 12 8 88 -49 83 -63 -3 -9 2 -11 14 -7 25 7 59 -18 48 -36 -6 -10 -5 -11 7
-1 13 11 19 6 38 -28 13 -22 26 -38 29 -35 9 10 8 85 -1 79 -5 -3 -7 5 -5 18
2 13 8 23 14 22 5 -1 10 8 11 20 1 40 15 68 30 63 8 -4 26 3 40 14 36 28 94
26 129 -3 21 -18 28 -35 32 -76 5 -52 4 -54 -39 -92 -24 -21 -48 -39 -52 -39
-5 0 -6 -4 -3 -9 4 -5 1 -11 -4 -13 -6 -2 -12 -26 -13 -53 -1 -50 15 -97 71
-210 31 -62 45 -78 74 -81 13 -1 24 -3 26 -4 1 -2 5 -3 10 -4 4 -1 13 -5 20
-9 28 -18 76 12 107 65 l29 53 7 -30 c4 -19 7 -23 8 -10 1 17 3 18 11 5 8 -12
10 -9 10 13 0 16 -3 26 -7 24 -5 -3 -9 37 -10 89 l-2 95 29 6 c16 3 34 11 40
18 6 7 19 11 30 8 23 -6 57 22 37 30 -8 4 -6 6 4 6 9 1 21 13 27 27 7 14 17
22 22 19 6 -3 10 -1 10 4 0 6 7 11 15 11 13 0 15 30 13 233 -3 231 -3 232 -25
235 -15 2 -34 -9 -59 -33z m-807 -261 c-3 -3 -12 -4 -19 -1 -8 3 -5 6 6 6 11
1 17 -2 13 -5z M53 585 c0 -8 7 -15 15 -15 12 0 12 3 2 15 -7 8 -13 15 -15 15
-1 0 -2 -7 -2 -15z"/>
</g>
</svg>
